<svg width="204" height="40" viewBox="0 0 204 40" fill="none" xmlns="http://www.w3.org/2000/svg">
<path d="M50.596 30V9.812H53.62V26.976H70.756V30H50.596ZM75.9443 30C74.9363 30 74.0776 29.6453 73.3683 28.936C72.659 28.2267 72.3043 27.368 72.3043 26.36V13.76H75.3283V25.94C75.3283 26.3507 75.3936 26.6307 75.5243 26.78C75.6736 26.9107 75.9536 26.976 76.3643 26.976H84.7643C85.175 26.976 85.4456 26.9107 85.5763 26.78C85.7256 26.6307 85.8003 26.3507 85.8003 25.94V13.76H88.8243V26.36C88.8243 27.368 88.4696 28.2267 87.7603 28.936C87.051 29.6453 86.1923 30 85.1843 30H75.9443ZM94.7371 30C93.7291 30 92.8705 29.6453 92.1611 28.936C91.4518 28.2267 91.0971 27.368 91.0971 26.36V17.4C91.0971 16.392 91.4518 15.5333 92.1611 14.824C92.8705 14.1147 93.7291 13.76 94.7371 13.76H104.593V8.44H107.617V30H94.7371ZM95.1851 26.976H103.585C103.996 26.976 104.266 26.9107 104.397 26.78C104.528 26.6307 104.593 26.3507 104.593 25.94V17.82C104.593 17.4093 104.528 17.1387 104.397 17.008C104.266 16.8587 103.996 16.784 103.585 16.784H95.1851C94.7745 16.784 94.4945 16.8587 94.3451 17.008C94.2145 17.1387 94.1491 17.4093 94.1491 17.82V25.94C94.1491 26.3507 94.2145 26.6307 94.3451 26.78C94.4945 26.9107 94.7745 26.976 95.1851 26.976ZM110.585 30V13.76H113.609V30H110.585ZM110.585 11.464V8.44H113.609V11.464H110.585ZM120.38 30C119.372 30 118.513 29.6453 117.804 28.936C117.095 28.2267 116.74 27.368 116.74 26.36V13.48C116.74 12.472 117.095 11.6133 117.804 10.904C118.513 10.1947 119.372 9.84 120.38 9.84H136.844V12.864H120.8C120.389 12.864 120.109 12.9387 119.96 13.088C119.829 13.2187 119.764 13.4893 119.764 13.9V25.94C119.764 26.3507 119.829 26.6307 119.96 26.78C120.109 26.9107 120.389 26.976 120.8 26.976H136.844V30H120.38ZM143.291 30C142.283 30 141.425 29.6453 140.715 28.936C140.006 28.2267 139.651 27.368 139.651 26.36V20.368H153.119V17.82C153.119 17.4093 153.054 17.1387 152.923 17.008C152.793 16.8587 152.522 16.784 152.111 16.784H139.651V13.76H152.531C153.539 13.76 154.398 14.1147 155.107 14.824C155.817 15.5333 156.171 16.392 156.171 17.4V30H143.291ZM143.711 26.976H153.119V23.196H142.675V25.94C142.675 26.3507 142.741 26.6307 142.871 26.78C143.021 26.9107 143.301 26.976 143.711 26.976ZM158.492 30V13.76H179.24C180.248 13.76 181.107 14.1147 181.816 14.824C182.526 15.5333 182.88 16.392 182.88 17.4V30H179.884V17.82C179.884 17.4093 179.81 17.1387 179.66 17.008C179.53 16.8587 179.259 16.784 178.848 16.784H173.276C172.847 16.784 172.567 16.8587 172.436 17.008C172.306 17.1387 172.24 17.4093 172.24 17.82V30H169.188V17.82C169.188 17.4093 169.114 17.1387 168.964 17.008C168.834 16.8587 168.563 16.784 168.152 16.784H162.552C162.142 16.784 161.871 16.8587 161.74 17.008C161.61 17.1387 161.544 17.4093 161.544 17.82V30H158.492ZM189.336 30C188.328 30 187.469 29.6453 186.76 28.936C186.05 28.2267 185.696 27.368 185.696 26.36V25.94H188.72V26.108C188.72 26.4067 188.785 26.6307 188.916 26.78C189.065 26.9107 189.289 26.976 189.588 26.976H198.324C198.622 26.976 198.837 26.9107 198.968 26.78C199.098 26.6307 199.164 26.4067 199.164 26.108V24.26C199.164 23.9613 199.098 23.7467 198.968 23.616C198.837 23.4667 198.622 23.392 198.324 23.392H189.336C188.328 23.392 187.469 23.0373 186.76 22.328C186.05 21.6187 185.696 20.76 185.696 19.752V17.4C185.696 16.392 186.05 15.5333 186.76 14.824C187.469 14.1147 188.328 13.76 189.336 13.76H198.576C199.584 13.76 200.442 14.1147 201.152 14.824C201.861 15.5333 202.216 16.392 202.216 17.4V17.82H199.164V17.652C199.164 17.3533 199.098 17.1387 198.968 17.008C198.837 16.8587 198.622 16.784 198.324 16.784H189.588C189.289 16.784 189.065 16.8587 188.916 17.008C188.785 17.1387 188.72 17.3533 188.72 17.652V19.5C188.72 19.7987 188.785 20.0227 188.916 20.172C189.065 20.3027 189.289 20.368 189.588 20.368H198.576C199.584 20.368 200.442 20.7227 201.152 21.432C201.861 22.1413 202.216 23 202.216 24.008V26.36C202.216 27.368 201.861 28.2267 201.152 28.936C200.442 29.6453 199.584 30 198.576 30H189.336Z" fill="#3C3C3C"/>
<path d="M23.75 3.76665L23.6166 3.69998L23.6 3.73331C22.4333 3.48331 21.2333 3.33331 20 3.33331C10.8 3.33331 3.33331 10.8 3.33331 20C3.33331 29.2 10.8 36.6666 20 36.6666C29.2 36.6666 36.6666 29.2 36.6666 20C36.6666 12.0833 31.15 5.46665 23.75 3.76665ZM32.35 15H19.0333L23.55 7.16665C27.55 8.26665 30.8 11.2 32.35 15ZM21.8333 6.79998L17.1166 15L15.2 18.3333L10.6666 10.5C13.1513 8.04252 16.5054 6.66495 20 6.66665C20.6166 6.66665 21.2333 6.71665 21.8333 6.79998ZM9.49998 11.8166L14.2333 20L16.15 23.3333H7.09998C6.83331 22.2666 6.66665 21.15 6.66665 20C6.66665 16.9166 7.73331 14.0833 9.49998 11.8166ZM7.64998 25H20.95L16.4333 32.8333C14.4693 32.2829 12.657 31.2911 11.1348 29.9335C9.61253 28.5759 8.42061 26.8885 7.64998 25ZM18.1666 33.1833L24.8166 21.6666L29.35 29.5C26.857 31.9551 23.4989 33.3318 20 33.3333C19.3666 33.3333 18.7666 33.2666 18.1666 33.1833ZM30.5 28.1833L23.8333 16.6666H32.8833C33.1666 17.7333 33.3333 18.85 33.3333 20C33.3333 23.0833 32.2666 25.9166 30.5 28.1833Z" fill="#3C3C3C"/>
</svg>
